<svg width="21" height="18" viewBox="0 0 21 18" fill="none" xmlns="http://www.w3.org/2000/svg">
<path d="M16.0201 1.61684L6.52522 3.53399C5.13876 3.81116 3.73316 4.94297 3.38894 6.05938L1.00804 13.7049C0.290899 16.0147 2.05028 17.4391 4.92839 16.8616L14.4233 14.9522C15.8002 14.675 17.2154 13.5355 17.5596 12.4268L19.9405 4.77358C20.6576 2.46377 18.8887 1.03939 16.0201 1.61684Z" stroke="#005DA0" stroke-width="1.5" stroke-linecap="round" stroke-linejoin="round"/>
<path d="M10.4743 11.934C12.3226 11.934 13.8209 10.7275 13.8209 9.23922C13.8209 7.75094 12.3226 6.54444 10.4743 6.54444C8.62596 6.54444 7.12762 7.75094 7.12762 9.23922C7.12762 10.7275 8.62596 11.934 10.4743 11.934Z" stroke="#005DA0" stroke-width="1.5" stroke-linecap="round" stroke-linejoin="round"/>
</svg>
