<svg width="20" height="20" viewBox="0 0 20 20" fill="none" xmlns="http://www.w3.org/2000/svg">
<path d="M0.993164 18.3584H18.9528M3.58731 6.37377H1.99092C1.44216 6.37377 0.993164 6.76974 0.993164 7.2537V14.8387C0.993164 15.3226 1.44216 15.7186 1.99092 15.7186H3.58731C4.13608 15.7186 4.58507 15.3226 4.58507 14.8387V7.2537C4.58507 6.76974 4.13608 6.37377 3.58731 6.37377ZM10.7712 3.5668H9.17479C8.62603 3.5668 8.17703 3.96277 8.17703 4.44673V14.8387C8.17703 15.3226 8.62603 15.7186 9.17479 15.7186H10.7712C11.3199 15.7186 11.7689 15.3226 11.7689 14.8387V4.44673C11.7689 3.96277 11.3199 3.5668 10.7712 3.5668ZM17.9551 0.759827H16.3587C15.8099 0.759827 15.3609 1.15579 15.3609 1.63976V14.8387C15.3609 15.3226 15.8099 15.7186 16.3587 15.7186H17.9551C18.5038 15.7186 18.9528 15.3226 18.9528 14.8387V1.63976C18.9528 1.15579 18.5038 0.759827 17.9551 0.759827Z" stroke="#005DA0" stroke-width="1.5" stroke-linecap="round" stroke-linejoin="round"/>
</svg>
